<?xml version="1.0" encoding="utf-8"?>
<!-- Generator: Adobe Illustrator 24.2.0, SVG Export Plug-In . SVG Version: 6.00 Build 0)  -->
<svg version="1.0" id="图层_1" xmlns="http://www.w3.org/2000/svg" xmlns:xlink="http://www.w3.org/1999/xlink" x="0px" y="0px"
	 viewBox="0 0 200 200" style="enable-background:new 0 0 200 200;" xml:space="preserve">
<style type="text/css">
	.st0{fill:#FFFFFF;}
	.st1{fill:#FFC024;}
	.st2{fill:#5473E8;}
</style>
<g>
	<path class="st0" d="M158,190H42c-17.67,0-32-14.33-32-32V42c0-17.67,14.33-32,32-32h116c17.67,0,32,14.33,32,32v116
		C190,175.67,175.67,190,158,190z"/>
	<g>
		<g>
			<g>
				<path class="st1" d="M98.82,115.63l-0.14-0.37l-21.98,9.23c0,0,8.65-25.75,14.8-44.11l-8.68-42.14l-47.7,126.43l-0.07,0.14
					L35,165l1.9-0.73l11.95-4.54l18.11-6.89l37.74-14.66L98.82,115.63z M116.78,37.24L115.94,35H91.68l7.6,22.08
					c0-0.02,0.01-0.03,0.01-0.04c0.06-0.19,0.09-0.28,0.09-0.28l25.74,74.79l4.39,12.78L165,165L116.78,37.24z"/>
			</g>
		</g>
		<polygon class="st2" points="165,165 129.51,144.34 125.11,131.56 91.9,35 115.94,35 116.78,37.24 164.94,164.84 		"/>
	</g>
</g>
</svg>
